# xmcd
#
# Track frame offsets:
#	150
#	13237
#	26138
#	42643
#	58127
#	73803
#	90131
#	102565
#	119256
#	133505
#	148957
#	166133
#
# Disc length: 2389 seconds
#
# Revision: 1
# Processed by: cddbd v1.5.2PL0 Copyright (c) Steve Scherf et al.
# Submitted via: audiograbber 1.83.01
#
DISCID=b009530c
DTITLE=อรวี สัจจานนท์ and ชรินทร์ นันทนาคร - คู่เคียง สำเนียงรัก ชุดที่ 1
DYEAR=2004
DGENRE=ไทย
TTITLE0=รักฉันนานๆ
TTITLE1=วนาสวาท
TTITLE2=สุกขีแม่ปิง
TTITLE3=พ่อแง่แม่งอน
TTITLE4=วิมานรักห้วยแก้ว
TTITLE5=อุทยานรักแห่งไทรโยค
TTITLE6=ข้องจิต
TTITLE7=มนต์รักดอกคำใต้
TTITLE8=สัญญาที่ป่าเหนือ
TTITLE9=คืนนี้
TTITLE10=เที่ยวเชียงใหม่
TTITLE11=คืนหนึ่ง
EXTD=
EXTT0=
EXTT1=
EXTT2=
EXTT3=
EXTT4=
EXTT5=
EXTT6=
EXTT7=
EXTT8=
EXTT9=
EXTT10=
EXTT11=
PLAYORDER=
